<?xml version="1.0" encoding="utf-8"?>
<!-- Generator: Adobe Illustrator 25.2.1, SVG Export Plug-In . SVG Version: 6.00 Build 0)  -->
<svg version="1.1" id="Layer_1" xmlns="http://www.w3.org/2000/svg" xmlns:xlink="http://www.w3.org/1999/xlink" x="0px" y="0px"
	 viewBox="0 0 344.7 607.3" style="enable-background:new 0 0 344.7 607.3;" xml:space="preserve">
<style type="text/css">
	.st0{fill:#1D1D1B;}
</style>
<g>
	<g>
		<polygon class="st0" points="74.7,282.6 1.7,235.6 1.7,144.1 74.7,191 		"/>
		<polygon class="st0" points="168.7,537.3 83.5,480 83.5,358.4 168.7,413.6 		"/>
		<polygon class="st0" points="214.1,316.8 125,375 86.1,349.4 173.7,290.2 		"/>
		<polygon class="st0" points="260.5,349 173.4,406.5 133.3,379.2 219.6,322 		"/>
		<polygon class="st0" points="74.7,475.4 1.7,426.3 1.7,245.2 74.7,292.1 		"/>
		<polygon class="st0" points="271.6,280.6 343.9,232.8 344.7,139.3 271.6,190 		"/>
		<g>
			<polygon class="st0" points="271.8,180.2 335.7,136.5 335.7,47.5 271.6,87.7 			"/>
		</g>
		<path class="st0" d="M202.4,94.8l-31.7,61.7l-31.1-61l26.9-91.5c1.3-4.3,7.3-4.3,8.6,0L202.4,94.8z"/>
		<path class="st0" d="M225,170.1l-54.3,106.3l-53.5-104.7l14-47.7l30.9,60.9c3.6,7.1,13.8,7.2,17.5,0l31.4-61.7L225,170.1z"/>
		<path class="st0" d="M188.5,286.3l44.9-88l2.4,8.2C247.4,242.8,224,279.9,188.5,286.3z"/>
		<path class="st0" d="M152.5,285.8c-34.2-7.3-56.5-43.2-45.8-78.6l2-6.9L152.5,285.8z"/>
		<polygon class="st0" points="343.8,244.2 343.8,424.3 276.1,379.2 271.5,382.7 271.6,291 		"/>
		<polygon class="st0" points="263,389 263,357.5 177.1,414.4 177.1,537.3 338.2,430.2 277.3,389.5 214.1,432.4 206.6,427.3 		"/>
	</g>
	<g>
		<path class="st0" d="M8.6,605.3C5.3,604,2.4,602,0,599.5l4.1-4.8c2.1,2.1,4.5,3.7,7.1,4.9c2.6,1.2,5.2,1.8,7.8,1.8
			c3.5,0,6.2-0.8,8.2-2.4c2-1.6,3-3.8,3-6.5c0-1.7-0.3-3.1-1-4.2c-0.7-1.1-1.5-1.9-2.6-2.6c-1.1-0.7-2.8-1.6-5.2-2.7l-8.1-3.5
			c-7.3-3-11-7.6-11-13.9c0-2.8,0.8-5.3,2.3-7.5c1.5-2.2,3.6-3.9,6.3-5.1c2.6-1.2,5.5-1.8,8.7-1.8c3,0,5.9,0.6,8.7,1.7
			s5.2,2.7,7.3,4.8l-3.6,4.4c-1.9-1.7-3.8-2.9-5.9-3.8c-2-0.8-4.2-1.2-6.5-1.2c-3.1,0-5.5,0.7-7.3,2.1c-1.8,1.4-2.7,3.4-2.7,5.9
			c0,2.1,0.7,3.8,2.1,5.1c1.4,1.3,3.6,2.6,6.6,3.8l2.1,0.9c1.4,0.7,3.4,1.5,5.9,2.5c3.7,1.5,6.4,3.4,8.3,5.6
			c1.8,2.3,2.8,5.2,2.8,8.6c0,3.1-0.8,5.8-2.5,8.1c-1.6,2.4-3.9,4.2-6.7,5.4c-2.8,1.3-6,1.9-9.5,1.9
			C15.3,607.3,11.9,606.6,8.6,605.3z"/>
		<path class="st0" d="M58.8,601.1c-3.2-4.1-4.8-9.9-4.8-17.5v-31.5h7.1V584c0,5.5,1,9.8,3.1,12.8c2.1,3,5.3,4.6,9.5,4.6
			c4.4,0,7.6-1.5,9.7-4.6c2-3,3.1-7.3,3.1-12.8v-31.8h6.8v31.5c0,15.8-6.5,23.6-19.6,23.6C67,607.3,62.1,605.2,58.8,601.1z"/>
		<path class="st0" d="M113.9,552.3h17.2c12.8,0,19.3,5.1,19.3,15.2c0,8.1-4.1,13.2-12.2,15.3l13.7,23.5h-8.1l-12.8-22.7H121v22.7
			h-7.1V552.3z M139.9,575.4c2.2-1.8,3.3-4.4,3.3-8c0-3.4-1-5.9-3.1-7.5c-2.1-1.6-5.4-2.3-9.9-2.3H121v20.5h9.1
			C134.5,578.1,137.7,577.2,139.9,575.4z"/>
		<path class="st0" d="M174.7,606.3h-7.1v-54h7.1V606.3z"/>
		<path class="st0" d="M195.5,606.3v-54h7.7l17.2,30.2l8.1,14.7h0.1c-0.5-6.1-0.8-12.2-0.8-18.2v-26.8h6.8v54h-7.7l-15.9-28
			l-9.4-16.9h-0.1c0.6,5.4,0.8,11.3,0.8,17.8v27.1H195.5z"/>
		<path class="st0" d="M255.4,606.3v-54h31.4v5.7h-24.3v17.1h20.6v5.8h-20.6v19.6h25.1v5.8H255.4z"/>
		<path class="st0" d="M305.2,606.3v-54h7.1V575h25.2v-22.7h7.2v54h-7.2v-25.4h-25.2v25.4H305.2z"/>
	</g>
</g>
</svg>
