<?xml version="1.0" encoding="utf-8"?>
<!-- Generator: Adobe Illustrator 25.2.1, SVG Export Plug-In . SVG Version: 6.00 Build 0)  -->
<svg version="1.1" id="Layer_1" xmlns="http://www.w3.org/2000/svg" xmlns:xlink="http://www.w3.org/1999/xlink" x="0px" y="0px"
	 viewBox="0 0 328.6 595.1" style="enable-background:new 0 0 328.6 595.1;" xml:space="preserve">
<style type="text/css">
	.st0{fill:url(#SVGID_1_);}
	.st1{fill:#1D1D1B;}
	.st2{fill:url(#SVGID_2_);}
	.st3{fill:url(#SVGID_3_);}
	.st4{fill:url(#SVGID_4_);}
</style>
<g>
	
		<linearGradient id="SVGID_1_" gradientUnits="userSpaceOnUse" x1="0" y1="393.0857" x2="69.868" y2="393.0857" gradientTransform="matrix(1 0 0 -1 0 596.8521)">
		<stop  offset="0" style="stop-color:#AB6F29"/>
		<stop  offset="0.3257" style="stop-color:#CA9F4D"/>
		<stop  offset="0.6131" style="stop-color:#E0C366"/>
		<stop  offset="0.8477" style="stop-color:#EED876"/>
		<stop  offset="1" style="stop-color:#F3E07C"/>
	</linearGradient>
	<polygon class="st0" points="69.9,270.1 0,225.1 0,137.4 69.9,182.4 	"/>
	<polygon class="st1" points="159.9,514.2 78.2,459.4 78.2,342.8 159.9,395.7 	"/>
	
		<linearGradient id="SVGID_2_" gradientUnits="userSpaceOnUse" x1="80.8349" y1="278.7956" x2="203.4427" y2="278.7956" gradientTransform="matrix(1 0 0 -1 0 596.8521)">
		<stop  offset="0" style="stop-color:#AB6F29"/>
		<stop  offset="0.3257" style="stop-color:#CA9F4D"/>
		<stop  offset="0.6131" style="stop-color:#E0C366"/>
		<stop  offset="0.8477" style="stop-color:#EED876"/>
		<stop  offset="1" style="stop-color:#F3E07C"/>
	</linearGradient>
	<polygon class="st2" points="203.4,302.9 118.2,358.7 80.8,334.2 164.8,277.4 	"/>
	<polygon class="st1" points="248,333.8 164.5,388.9 126.1,362.7 208.7,307.8 	"/>
	<polygon class="st1" points="69.9,455 0,407.9 0,234.4 69.9,279.2 	"/>
	
		<linearGradient id="SVGID_3_" gradientUnits="userSpaceOnUse" x1="258.647" y1="396.2896" x2="328.6382" y2="396.2896" gradientTransform="matrix(1 0 0 -1 0 596.8521)">
		<stop  offset="0" style="stop-color:#AB6F29"/>
		<stop  offset="0.3257" style="stop-color:#CA9F4D"/>
		<stop  offset="0.6131" style="stop-color:#E0C366"/>
		<stop  offset="0.8477" style="stop-color:#EED876"/>
		<stop  offset="1" style="stop-color:#F3E07C"/>
	</linearGradient>
	<polygon class="st3" points="258.6,268.3 327.9,222.4 328.6,132.9 258.6,181.4 	"/>
	
		<linearGradient id="SVGID_4_" gradientUnits="userSpaceOnUse" x1="258.647" y1="488.461" x2="320.0125" y2="488.461" gradientTransform="matrix(1 0 0 -1 0 596.8521)">
		<stop  offset="0" style="stop-color:#AB6F29"/>
		<stop  offset="0.3257" style="stop-color:#CA9F4D"/>
		<stop  offset="0.6131" style="stop-color:#E0C366"/>
		<stop  offset="0.8477" style="stop-color:#EED876"/>
		<stop  offset="1" style="stop-color:#F3E07C"/>
	</linearGradient>
	<polygon class="st4" points="258.8,171.9 320,130.1 320,44.9 258.6,83.3 	"/>
	<path class="st1" d="M192.2,90.2l-30.4,59.1L132,90.8l25.9-87.7c1.2-4.1,7-4.2,8.3,0L192.2,90.2z"/>
	<path class="st1" d="M213.9,162.3l-52.1,101.8l-51.3-100.3l13.4-45.7l29.6,58.4c3.5,6.9,13.3,6.9,16.8,0l30.1-59.1L213.9,162.3z"/>
	<path class="st1" d="M179,273.7l43.1-84.3l2.3,7.8C235.5,232,213.1,267.5,179,273.7z"/>
	<path class="st1" d="M144.4,273.2c-32.8-7-54.1-41.4-43.9-75.3l2-6.5L144.4,273.2z"/>
	<polygon class="st1" points="327.9,233.3 327.9,405.9 263,362.8 258.5,366.1 258.6,278.1 	"/>
	<polygon class="st1" points="250.4,372.2 250.4,342 168.1,396.4 168.1,514.2 322.4,411.6 264.1,372.5 203.4,413.7 196.3,408.9 	"/>
	<g>
		<path class="st1" d="M9.7,593.1c-3.1-1.2-5.8-3.1-8.1-5.5l3.9-4.7c2.1,2,4.3,3.6,6.8,4.7s4.9,1.7,7.4,1.7c3.3,0,5.9-0.7,7.8-2.3
			c1.8-1.5,2.8-3.6,2.8-6.3c0-1.7-0.4-3.1-1-4.1s-1.5-1.8-2.5-2.5c-1-0.6-2.7-1.5-4.9-2.6l-7.6-3.3c-6.9-3-10.4-7.4-10.4-13.3
			c0-2.7,0.7-5.2,2.2-7.3s3.5-3.7,5.9-4.9c2.5-1.1,5.3-1.7,8.3-1.7c2.8,0,5.5,0.5,8.3,1.6s4.9,2.6,6.9,4.6l-3.5,4.3
			c-1.8-1.6-3.7-2.8-5.5-3.6c-2-0.7-3.9-1.2-6.2-1.2c-3,0-5.2,0.6-6.9,2c-1.7,1.4-2.6,3.2-2.6,5.7c0,2,0.7,3.7,2.1,4.9
			c1.4,1.2,3.5,2.5,6.3,3.7l2.1,0.9c1.4,0.6,3.2,1.5,5.5,2.5c3.5,1.5,6.2,3.2,7.9,5.4c1.7,2.2,2.6,4.9,2.6,8.3c0,3-0.7,5.5-2.3,7.8
			c-1.6,2.2-3.7,3.9-6.4,5.2s-5.7,1.8-9,1.8C16.1,595.1,12.8,594.4,9.7,593.1z"/>
		<path class="st1" d="M57.3,589.1c-3.1-3.9-4.6-9.6-4.6-16.8v-30.2h6.8v30.6c0,5.3,1,9.5,3,12.3c2,3,4.9,4.4,9,4.4
			c4.2,0,7.3-1.5,9.1-4.4c2-3,3-7,3-12.3v-30.6H90v30.2c0,15.2-6.2,22.7-18.5,22.7C65.2,595.1,60.4,593.1,57.3,589.1z"/>
		<path class="st1" d="M109.5,542.2h16.3c12.2,0,18.2,4.9,18.2,14.7c0,7.8-3.8,12.7-11.6,14.8l12.9,22.5h-7.6l-12.2-21.8h-9.4v21.8
			h-6.8v-52H109.5z M134.2,564.4c2.1-1.7,3.1-4.3,3.1-7.6c0-3.3-1-5.7-3-7.1c-2-1.5-5.1-2.2-9.4-2.2h-8.6v19.7h8.6
			C129,567,132.1,566.1,134.2,564.4z"/>
		<path class="st1" d="M167.1,594.1h-6.8v-51.9h6.8V594.1z"/>
		<path class="st1" d="M186.9,594.1v-51.9h7.3l16.3,29.1l7.6,14.2h0.1c-0.5-5.9-0.7-11.7-0.7-17.5v-25.8h6.4v51.9h-7.3l-15-27
			l-9-16.3l0,0c0.5,5.2,0.7,10.8,0.7,17.1v26h-6.4V594.1z"/>
		<path class="st1" d="M243.6,594.1v-51.9h29.8v5.4h-23V564h19.5v5.5h-19.5v18.9h23.8v5.5h-30.6V594.1z"/>
		<path class="st1" d="M290.8,594.1v-51.9h6.8V564h23.8v-21.8h6.8v51.9h-6.8v-24.4h-23.8v24.4H290.8z"/>
	</g>
</g>
</svg>
